<svg xmlns="http://www.w3.org/2000/svg" width="1200" height="1500" viewBox="0 0 1200 1500">
  <defs><linearGradient id="g" x1="0" y1="0" x2="1" y2="1">
    <stop offset="0" stop-color="#1c1b18"/><stop offset="0.55" stop-color="#111110"/><stop offset="1" stop-color="#070707"/>
  </linearGradient></defs>
  <rect width="1200" height="1500" fill="url(#g)"/>
  <line x1="0" y1="0" x2="1200" y2="60" stroke="#ffffff" stroke-width="1" opacity="0.04"/><line x1="0" y1="107.14285714285714" x2="1200" y2="167.14285714285714" stroke="#ffffff" stroke-width="1" opacity="0.04"/><line x1="0" y1="214.28571428571428" x2="1200" y2="274.2857142857143" stroke="#ffffff" stroke-width="1" opacity="0.04"/><line x1="0" y1="321.42857142857144" x2="1200" y2="381.42857142857144" stroke="#ffffff" stroke-width="1" opacity="0.04"/><line x1="0" y1="428.57142857142856" x2="1200" y2="488.57142857142856" stroke="#ffffff" stroke-width="1" opacity="0.04"/><line x1="0" y1="535.7142857142857" x2="1200" y2="595.7142857142857" stroke="#ffffff" stroke-width="1" opacity="0.04"/><line x1="0" y1="642.8571428571429" x2="1200" y2="702.8571428571429" stroke="#ffffff" stroke-width="1" opacity="0.04"/><line x1="0" y1="750" x2="1200" y2="810" stroke="#ffffff" stroke-width="1" opacity="0.04"/><line x1="0" y1="857.1428571428571" x2="1200" y2="917.1428571428571" stroke="#ffffff" stroke-width="1" opacity="0.04"/><line x1="0" y1="964.2857142857142" x2="1200" y2="1024.2857142857142" stroke="#ffffff" stroke-width="1" opacity="0.04"/><line x1="0" y1="1071.4285714285713" x2="1200" y2="1131.4285714285713" stroke="#ffffff" stroke-width="1" opacity="0.04"/><line x1="0" y1="1178.5714285714284" x2="1200" y2="1238.5714285714284" stroke="#ffffff" stroke-width="1" opacity="0.04"/><line x1="0" y1="1285.7142857142858" x2="1200" y2="1345.7142857142858" stroke="#ffffff" stroke-width="1" opacity="0.04"/><line x1="0" y1="1392.857142857143" x2="1200" y2="1452.857142857143" stroke="#ffffff" stroke-width="1" opacity="0.04"/>
  <text x="600" y="750" text-anchor="middle" font-family="Georgia, serif" font-style="italic" font-size="100" fill="#ffffff12">Utility</text>
</svg>