<svg xmlns="http://www.w3.org/2000/svg" width="600" height="800" viewBox="0 0 600 800">
  <defs>
    <linearGradient id="bg" x1="0" y1="0" x2="0" y2="1">
      <stop offset="0" stop-color="#F1EEE8"/><stop offset="1" stop-color="#E3DED4"/>
    </linearGradient>
    <radialGradient id="vig" cx="0.5" cy="0.42" r="0.75">
      <stop offset="0.6" stop-color="#00000000"/><stop offset="1" stop-color="#00000018"/>
    </radialGradient>
  </defs>
  <rect width="600" height="800" fill="url(#bg)"/>
  <ellipse cx="300" cy="660" rx="180" ry="34" fill="rgba(0,0,0,0.16)"/>
  
  <rect x="120" y="220" width="360" height="360" rx="10" fill="#191919"/>
  <line x1="120" y1="230" x2="480" y2="230" stroke="#3a3a3a" stroke-width="1" opacity="0.18"/><line x1="120" y1="246" x2="480" y2="246" stroke="#3a3a3a" stroke-width="1" opacity="0.18"/><line x1="120" y1="262" x2="480" y2="262" stroke="#3a3a3a" stroke-width="1" opacity="0.18"/><line x1="120" y1="278" x2="480" y2="278" stroke="#3a3a3a" stroke-width="1" opacity="0.18"/><line x1="120" y1="294" x2="480" y2="294" stroke="#3a3a3a" stroke-width="1" opacity="0.18"/><line x1="120" y1="310" x2="480" y2="310" stroke="#3a3a3a" stroke-width="1" opacity="0.18"/><line x1="120" y1="326" x2="480" y2="326" stroke="#3a3a3a" stroke-width="1" opacity="0.18"/><line x1="120" y1="342" x2="480" y2="342" stroke="#3a3a3a" stroke-width="1" opacity="0.18"/><line x1="120" y1="358" x2="480" y2="358" stroke="#3a3a3a" stroke-width="1" opacity="0.18"/><line x1="120" y1="374" x2="480" y2="374" stroke="#3a3a3a" stroke-width="1" opacity="0.18"/><line x1="120" y1="390" x2="480" y2="390" stroke="#3a3a3a" stroke-width="1" opacity="0.18"/><line x1="120" y1="406" x2="480" y2="406" stroke="#3a3a3a" stroke-width="1" opacity="0.18"/><line x1="120" y1="422" x2="480" y2="422" stroke="#3a3a3a" stroke-width="1" opacity="0.18"/><line x1="120" y1="438" x2="480" y2="438" stroke="#3a3a3a" stroke-width="1" opacity="0.18"/><line x1="120" y1="454" x2="480" y2="454" stroke="#3a3a3a" stroke-width="1" opacity="0.18"/><line x1="120" y1="470" x2="480" y2="470" stroke="#3a3a3a" stroke-width="1" opacity="0.18"/><line x1="120" y1="486" x2="480" y2="486" stroke="#3a3a3a" stroke-width="1" opacity="0.18"/><line x1="120" y1="502" x2="480" y2="502" stroke="#3a3a3a" stroke-width="1" opacity="0.18"/><line x1="120" y1="518" x2="480" y2="518" stroke="#3a3a3a" stroke-width="1" opacity="0.18"/><line x1="120" y1="534" x2="480" y2="534" stroke="#3a3a3a" stroke-width="1" opacity="0.18"/><line x1="120" y1="550" x2="480" y2="550" stroke="#3a3a3a" stroke-width="1" opacity="0.18"/><line x1="120" y1="566" x2="480" y2="566" stroke="#3a3a3a" stroke-width="1" opacity="0.18"/>
  <rect x="120" y="220" width="360" height="360" rx="10" fill="none" stroke="#3a3a3a" stroke-opacity="0.3"/>
  <rect x="250" y="500" width="100" height="40" rx="4" fill="#F1EEE8" opacity="0.92"/>
  <text x="300" y="525" text-anchor="middle" font-family="Georgia, serif" font-size="13" letter-spacing="3" fill="#191919">LUXAFOIR</text>
  <path d="M150 250 L150 300 M450 250 L450 300" fill="none" stroke="#3a3a3a" stroke-width="3" stroke-linecap="round" stroke-linejoin="round" opacity="0.55" opacity="0.4"/>
  <rect width="600" height="800" fill="url(#vig)"/>
  <text x="300" y="772" text-anchor="middle" font-family="Georgia, serif" font-size="17" letter-spacing="7" fill="#00000022">LUXAFOIR</text>
</svg>