<svg xmlns="http://www.w3.org/2000/svg" width="1920" height="1080" viewBox="0 0 1920 1080">
  <defs><linearGradient id="g" x1="0" y1="0" x2="1" y2="1">
    <stop offset="0" stop-color="#1c1b18"/><stop offset="0.55" stop-color="#111110"/><stop offset="1" stop-color="#070707"/>
  </linearGradient></defs>
  <rect width="1920" height="1080" fill="url(#g)"/>
  <line x1="0" y1="0" x2="1920" y2="60" stroke="#ffffff" stroke-width="1" opacity="0.04"/><line x1="0" y1="77.14285714285714" x2="1920" y2="137.14285714285714" stroke="#ffffff" stroke-width="1" opacity="0.04"/><line x1="0" y1="154.28571428571428" x2="1920" y2="214.28571428571428" stroke="#ffffff" stroke-width="1" opacity="0.04"/><line x1="0" y1="231.42857142857142" x2="1920" y2="291.42857142857144" stroke="#ffffff" stroke-width="1" opacity="0.04"/><line x1="0" y1="308.57142857142856" x2="1920" y2="368.57142857142856" stroke="#ffffff" stroke-width="1" opacity="0.04"/><line x1="0" y1="385.71428571428567" x2="1920" y2="445.71428571428567" stroke="#ffffff" stroke-width="1" opacity="0.04"/><line x1="0" y1="462.85714285714283" x2="1920" y2="522.8571428571429" stroke="#ffffff" stroke-width="1" opacity="0.04"/><line x1="0" y1="540" x2="1920" y2="600" stroke="#ffffff" stroke-width="1" opacity="0.04"/><line x1="0" y1="617.1428571428571" x2="1920" y2="677.1428571428571" stroke="#ffffff" stroke-width="1" opacity="0.04"/><line x1="0" y1="694.2857142857142" x2="1920" y2="754.2857142857142" stroke="#ffffff" stroke-width="1" opacity="0.04"/><line x1="0" y1="771.4285714285713" x2="1920" y2="831.4285714285713" stroke="#ffffff" stroke-width="1" opacity="0.04"/><line x1="0" y1="848.5714285714286" x2="1920" y2="908.5714285714286" stroke="#ffffff" stroke-width="1" opacity="0.04"/><line x1="0" y1="925.7142857142857" x2="1920" y2="985.7142857142857" stroke="#ffffff" stroke-width="1" opacity="0.04"/><line x1="0" y1="1002.8571428571428" x2="1920" y2="1062.8571428571427" stroke="#ffffff" stroke-width="1" opacity="0.04"/>
  <text x="960" y="540" text-anchor="middle" font-family="Georgia, serif" font-style="italic" font-size="160" fill="#ffffff12">HEAVY</text>
</svg>